<svg width="137.254" height="139.181" viewBox="0 0 36.315 36.825" xmlns="http://www.w3.org/2000/svg"><defs><clipPath id="c"><path d="M0 815h850V0H0z"/></clipPath><clipPath id="b"><path d="M0 815h850V0H0z"/></clipPath><clipPath id="a"><path d="M843.062 319.42a86.14 85.07 0 0 0-85.316-85.066 86.14 85.07 0 0 0-86.949 83.437 86.14 85.07 0 0 0 83.651 86.664 86.14 85.07 0 0 0 88.55-81.778" fill="#005ba8" paint-order="stroke fill markers"/></clipPath></defs><g fill="#005ba8"><path d="M36.315 17.931a18.157 17.932 0 0 1-17.984 17.932A18.157 17.932 0 0 1 .003 18.275 18.157 17.932 0 0 1 17.636.007a18.157 17.932 0 0 1 18.666 17.238" paint-order="stroke fill markers"/><g stroke="#fff"><path d="M33.53 32.146a4.336 4.336 0 0 1-4.295 4.336 4.336 4.336 0 0 1-4.377-4.253 4.336 4.336 0 0 1 4.211-4.417 4.336 4.336 0 0 1 4.457 4.168" stroke-linecap="square" stroke-linejoin="round" stroke-width=".68317072" paint-order="stroke fill markers"/><path d="M28.83 32.232l-1.58-1.58.278-.285 1.586 1.586 1.573-1.58.285.28-1.579 1.579 1.586 1.58-.285.278-1.586-1.58-1.587 1.587-.278-.279z" fill="#fff" stroke-width=".37298771999999997" aria-label="×"/></g></g><g clip-path="url(#c)" transform="matrix(.0948 0 0 -.0948 -45.166 48.858)" fill="#fff"><path d="M776.906 390.874c-2.501-5.507-6.39-10.566-12.309-15.533l-.008-.007-28.022-23.567v8.344a4.966 4.966 0 0 1-4.542 4.945c-11.435.975-21.629 6.248-28.988 14.213-7.354 7.972-11.834 18.577-11.837 30.279.003 12.35 4.993 23.486 13.084 31.586 8.098 8.09 19.235 13.08 31.584 13.083 12.352-.002 23.487-4.992 31.587-13.083 8.092-8.1 13.079-19.235 13.082-31.586-.003-7.1-1.141-13.161-3.631-18.674m-2.43 57.278c-9.866 9.872-23.545 15.995-38.608 15.99-15.059.005-28.739-6.118-38.604-15.99-9.871-9.865-15.995-23.545-15.991-38.604-.004-14.27 5.496-27.302 14.47-37.013a54.524 54.524 0 0 1 30.897-16.78v-14.647a4.961 4.961 0 0 1 8.157-3.8l36.181 30.429-.009-.006c6.84 5.72 11.81 12.037 14.979 19.049 3.177 7.01 4.521 14.609 4.516 22.768.003 15.059-6.118 28.739-15.988 38.604"/><path d="M709.812 416.167a6.62 6.62 0 0 1 0-13.238 6.62 6.62 0 0 1 0 13.238M735.869 416.167a6.62 6.62 0 0 1 0-13.238 6.62 6.62 0 0 1 0 13.238M761.928 416.167c-3.655 0-6.617-2.964-6.617-6.62a6.617 6.617 0 1 1 13.236 0 6.62 6.62 0 0 1-6.619 6.62"/></g><g transform="matrix(.21079 0 0 -.21079 -141.394 85.263)" clip-path="url(#a)"><g clip-path="url(#b)" fill="#fff"><path d="M694.64 258.183h56.964v53.91H694.64zM698.932 231.143h16.987v23.633h-16.987zM730.327 231.143h16.985v23.633h-16.985zM691.089 312.093h-4.395c-6.953 0-12.59-5.637-12.59-12.59v-29.627h16.985zM687.795 264.738a9.254 9.254 0 0 1-5.197 1.587 9.274 9.274 0 0 1-7.705-4.095 9.254 9.254 0 0 1-1.587-5.197 9.251 9.251 0 0 1 1.591-5.203 9.322 9.322 0 0 1 4.097-3.363l1.689 4.014a4.974 4.974 0 0 0-2.178 1.79 4.91 4.91 0 0 0-.844 2.762 4.915 4.915 0 0 0 2.179 4.095c.79.532 1.727.84 2.758.842a4.942 4.942 0 0 0 4.937-4.937 4.925 4.925 0 0 0-.844-2.762 4.977 4.977 0 0 0-2.179-1.79l1.69-4.014a9.31 9.31 0 0 1 4.095 3.363 9.245 9.245 0 0 1 1.593 5.203c0 1.278-.26 2.504-.732 3.618a9.307 9.307 0 0 1-3.363 4.087M772.14 299.503c0 6.954-5.637 12.59-12.59 12.59h-4.395v-42.217h16.985zM772.209 260.651a9.332 9.332 0 0 1-3.365 4.087 9.243 9.243 0 0 1-5.196 1.587 9.278 9.278 0 0 1-7.705-4.095 9.276 9.276 0 0 1-1.589-5.197c0-1.92.59-3.722 1.593-5.203a9.322 9.322 0 0 1 4.097-3.363l1.69 4.014a4.971 4.971 0 0 0-2.179 1.79 4.893 4.893 0 0 0-.843 2.762 4.924 4.924 0 0 0 2.176 4.095c.791.532 1.729.84 2.76.842.687 0 1.331-.138 1.921-.388a4.959 4.959 0 0 0 2.174-1.791 4.9 4.9 0 0 0 .842-2.758 4.917 4.917 0 0 0-.844-2.762 4.968 4.968 0 0 0-2.18-1.79l1.691-4.014a9.305 9.305 0 0 1 4.095 3.363 9.253 9.253 0 0 1 1.593 5.203c0 1.278-.26 2.504-.731 3.618M734.511 322.556H711.28a8.422 8.422 0 1 0 0 16.841h23.231a8.42 8.42 0 1 0 0-16.841m-11.388 36.586c-15.731 0-28.483-13.253-28.483-29.597v-14.256h56.964v14.256c0 16.344-12.752 29.597-28.481 29.597"/><g><path d="M713.38 335.234a4.258 4.258 0 1 1 .001-8.515 4.258 4.258 0 0 1-.001 8.515"/></g><g><path d="M732.545 333.01a2.032 2.032 0 1 1 .003-4.065 2.032 2.032 0 0 1-.003 4.065"/></g></g></g><style></style><style></style><style></style><style></style><style></style><style></style><style></style><style></style><style></style><style></style><style></style><style></style><style></style><style></style><style></style><style></style><style></style><style></style><style></style><style></style><style></style><style></style><style></style><style></style><style></style><style></style><style></style><style></style><style></style><style></style><style></style><style></style><style></style><style></style><style></style><style></style><style></style><style></style><style></style><style></style><style></style><style></style><style></style><style></style><style></style><style></style><style></style><style></style><style></style><style></style><style></style><style></style></svg>