<svg width="329.815" height="202.293" viewBox="0 0 87.263 53.523" xmlns="http://www.w3.org/2000/svg"><defs><clipPath id="a"><path d="M0 815h850V0H0z"/></clipPath><clipPath id="b"><path d="M0 815h850V0H0z"/></clipPath></defs><g transform="translate(58.54 -87.664)"><path d="M7.348 135.659a4.914 5.008 0 0 1-4.867 5.008 4.914 5.008 0 0 1-4.96-4.912 4.914 5.008 0 0 1 4.772-5.102 4.914 5.008 0 0 1 5.051 4.814" fill="#fff" stroke="#005ba8" stroke-linecap="round" stroke-linejoin="round" stroke-width="1.039" paint-order="stroke fill markers"/><rect transform="translate(-91.682 -104.172)" x="33.141" y="193.834" width="87.263" height="37.685" ry="3.361" fill="#005ba8" paint-order="stroke fill markers"/><path d="M5.339 138.134l-.574.574-2.253-2.274-2.253 2.274-.574-.574 2.274-2.253-2.274-2.253.574-.574 2.253 2.274 2.253-2.274.574.574-2.274 2.253z" stroke-width=".265" fill="#005ba8" aria-label="×"/><g fill="#fff" aria-label="AIが お答えします"><path d="M-53.9 108.564l2.647-7.73h1.271l2.646 7.73h-1.25l-.631-2.057h-2.853l-.63 2.057zm2.11-2.966h2.294l-1.137-3.7h-.02zM-45.386 108.364v-7.73h1.261v7.73zM-36.506 101.336v-1.488h.713v1.488zm1.116 0v-1.488h.713v1.488zm-5.83 1.023q.455-.041 1.21-.082.03-.962.01-1.644h1.065q.03.651-.01 1.571h1.043q.662 0 1.044.434.393.424.465 1.437.073.775.052 1.581-.01.806-.155 1.478-.145.662-.486 1.013-.341.341-.868.362-.517-.01-1.22-.155v-1.024q.61.124.993.114.454-.052.568-.64.124-.6.124-1.303 0-.713-.041-1.374-.042-.507-.217-.683-.166-.186-.517-.186h-.403q-.166 0-.445.021-.155 1.633-.454 2.873-.29 1.23-.693 2.315h-1.106q.445-.981.765-2.325.32-1.344.444-2.78-.806.062-1.167.113zm5.106-.548h1.075q.507 1.385.693 2.812h-1.096q-.145-1.447-.672-2.812zM-54.603 113.037v-.835h1.464v-.794h.835v.794h1.1v.835h-1.1v.967q.173-.024.347-.033.339-.008.728.066.396.075.727.273.34.19.587.587.257.389.265 1.017-.009.711-.257 1.108-.248.389-.57.562-.323.166-.686.215-.364.058-.744.058v-.835q.52 0 .818-.132.298-.132.43-.38t.132-.612q0-.554-.405-.835-.397-.281-1.124-.257h-.066q-.041 0-.182.033v1.67q-.025.612-.248.852-.224.24-.463.298-.232.058-.43.041-.298 0-.637-.149-.33-.157-.537-.529-.199-.372-.215-.868-.009-.455.165-.835.174-.38.562-.711t.968-.504v-1.067zm3.233-1.596h.91q.537 1.034.967 2.117h-.943q-.364-.984-.934-2.117zm-1.77 5.093v-1.57q-.43.19-.644.496-.207.306-.215.661-.009.265.074.422.091.149.232.231.148.075.198.066.033.025.182-.024.157-.058.174-.282zM-42.87 116.311h-3.399v1.067h3.399zm-4.15 2.01v-2.688h4.927v2.662h-.777v-.231h-3.399v.256zm1.14-3.994h2.646q-.843-.57-1.364-1.166-.488.579-1.282 1.166zm2.596-2.415h-.52q-.207.323-.447.57.678.786 1.662 1.415t1.992.95q-.264.29-.463.662-.86-.347-1.777-.926v.389h-3.432v-.38q-.9.586-1.827.983-.124-.29-.422-.62 1.067-.405 2.018-1.091.96-.687 1.488-1.381h.199q-.14-.091-.348-.207.215-.174.38-.364h-1.306q.29.472.414.835l-.711.24q-.116-.446-.496-1.075h-.199q-.388.662-.802 1.1-.314-.248-.653-.43.819-.769 1.298-2.15l.769.199q-.058.157-.256.612h1.984v.628q.538-.612.827-1.439l.769.19q-.033.091-.265.62h2.605v.67h-1.613q.34.463.48.802l-.728.265q-.173-.463-.62-1.067zM-39.439 113.219h3.787v.827l-1.017.975q.256-.04.413.116.166.157.157.422v.901q0 .207.067.323.066.107.305.107.224.017.538-.041.322-.066.546-.14v.85q-.67.191-1.332.183-.52-.008-.744-.265-.215-.256-.206-.81v-.281-.695q-.009-.132-.108-.165-.09-.033-.33.14l-2.159 2.067v-1.198l2.704-2.473h-2.621zm.62-1.678q.273-.017.653-.017.38-.008.852.008.488.017.893.058.413.041.769.1v.884q-.562-.1-.901-.14-.331-.042-.827-.059-.777-.016-1.439.025zM-32.113 111.375v4.58q0 .555.157.794.157.232.595.265.488 0 1.042-.248.562-.248 1.042-.546.48-.297.777-.529v1.009q-.413.322-.827.57-.413.24-.918.414t-1.066.19q-.868-.017-1.257-.521-.389-.513-.389-1.422v-4.556zM-27.02 113.682h2.108v-.777h-2.257v-.835h2.257v-.678h.868v.678h1.712v.835h-1.712v.777h1.571v.794h-1.57v.91q.446.14.81.355.372.215.587.397.215.173.182.107v1.108q-.844-.752-1.58-1.083v.314q-.008.57-.24.893-.223.314-.553.405-.331.1-.695.091-.446 0-.843-.165-.397-.165-.587-.463-.19-.298-.207-.703 0-.496.265-.868.273-.372.769-.521.504-.149 1.223-.041v-.736h-2.108zm1.488 3.456q.24 0 .414-.107.181-.108.206-.389v-.604q-.719-.148-1.058.042-.33.182-.347.48 0 .264.19.421.198.157.595.157zM-21.084 112.971v-.843h3.175v-.802h.844v.802h1.19v.843h-1.19v1.72q.215.52.24.918.033.628-.124 1.24-.157.603-.463 1.033h-1q.388-.487.52-.884.14-.397.157-.587-.256.272-.603.421-.34.15-.629.166-.512.016-.86-.19-.347-.207-.562-.596-.215-.388-.207-.95.017-.555.257-.952.248-.396.628-.587.38-.198.943-.165.19.017.421.083.232.058.438.215v-.885zm3.266 2.282q-.008-.265-.256-.57-.248-.315-.686-.356-.455-.05-.711.24-.257.28-.257.661 0 .521.29.76.29.232.736.141.405-.107.595-.289t.24-.355.05-.232z"/></g><g clip-path="url(#a)" transform="matrix(.22627 0 0 -.22627 -98.56 139.364)" fill="#fff"><path d="M406.426 104.54h56.964v53.91h-56.964zM410.718 77.5h16.987v23.633h-16.987zM442.113 77.5h16.985v23.633h-16.985zM402.875 158.45h-4.395c-6.953 0-12.59-5.637-12.59-12.59v-29.627h16.985zM399.58 111.095a9.254 9.254 0 0 1-5.197 1.587 9.274 9.274 0 0 1-7.705-4.095 9.254 9.254 0 0 1-1.587-5.197 9.251 9.251 0 0 1 1.591-5.203 9.322 9.322 0 0 1 4.097-3.363l1.689 4.014a4.974 4.974 0 0 0-2.178 1.79 4.91 4.91 0 0 0-.844 2.762 4.915 4.915 0 0 0 2.179 4.095c.79.532 1.727.84 2.758.842a4.942 4.942 0 0 0 4.937-4.937 4.925 4.925 0 0 0-.844-2.762 4.977 4.977 0 0 0-2.179-1.79l1.69-4.014a9.31 9.31 0 0 1 4.095 3.363 9.245 9.245 0 0 1 1.593 5.203c0 1.278-.26 2.504-.732 3.618a9.307 9.307 0 0 1-3.363 4.087M483.926 145.86c0 6.954-5.637 12.59-12.59 12.59h-4.395v-42.217h16.985zM483.995 107.008a9.332 9.332 0 0 1-3.365 4.087 9.243 9.243 0 0 1-5.196 1.587 9.278 9.278 0 0 1-7.705-4.095 9.276 9.276 0 0 1-1.589-5.197c0-1.92.59-3.722 1.593-5.203a9.322 9.322 0 0 1 4.097-3.363l1.69 4.014a4.971 4.971 0 0 0-2.179 1.79 4.893 4.893 0 0 0-.843 2.762 4.924 4.924 0 0 0 2.176 4.095c.791.532 1.729.84 2.76.842.687 0 1.331-.138 1.921-.388a4.959 4.959 0 0 0 2.174-1.791 4.9 4.9 0 0 0 .842-2.758 4.917 4.917 0 0 0-.844-2.762 4.968 4.968 0 0 0-2.18-1.79l1.691-4.014a9.305 9.305 0 0 1 4.095 3.363 9.253 9.253 0 0 1 1.593 5.203c0 1.278-.26 2.504-.731 3.618M446.296 168.914h-23.231a8.422 8.422 0 1 0 0 16.841h23.231a8.42 8.42 0 1 0 0-16.841M434.908 205.5c-15.731 0-28.483-13.253-28.483-29.597v-14.256h56.964v14.256c0 16.344-12.752 29.597-28.481 29.597"/><path d="M425.165 181.591a4.258 4.258 0 1 1 .001-8.515 4.258 4.258 0 0 1-.001 8.515M444.331 179.367a2.032 2.032 0 1 1 .003-4.065 2.032 2.032 0 0 1-.003 4.065"/></g><g clip-path="url(#b)" paint-order="stroke fill markers" transform="matrix(.15663 0 0 -.15663 -91.697 158.305)" stroke="#005ba8" stroke-width="8.025"><g fill="#fff" paint-order="stroke fill markers"><path d="M478.335 373.731c-2.501-5.507-6.39-10.566-12.309-15.533l-.008-.007-28.022-23.567v8.344a4.966 4.966 0 0 1-4.542 4.945c-11.435.975-21.629 6.248-28.988 14.213-7.354 7.972-11.834 18.577-11.837 30.279.003 12.351 4.993 23.486 13.084 31.586 8.098 8.091 19.235 13.081 31.584 13.083 12.352-.002 23.487-4.992 31.587-13.083 8.092-8.1 13.079-19.235 13.082-31.586-.003-7.1-1.141-13.161-3.631-18.674m-2.43 57.278c-9.866 9.872-23.545 15.995-38.608 15.991-15.059.004-28.739-6.119-38.604-15.991-9.871-9.865-15.995-23.545-15.991-38.604-.004-14.269 5.496-27.302 14.47-37.013a54.524 54.524 0 0 1 30.897-16.78v-14.647a4.961 4.961 0 0 1 8.157-3.8l36.181 30.429-.009-.006c6.84 5.72 11.81 12.037 14.979 19.049 3.177 7.011 4.521 14.609 4.516 22.768.003 15.059-6.118 28.739-15.988 38.604" paint-order="stroke fill markers"/><path d="M411.241 399.024a6.62 6.62 0 0 1 0-13.238 6.62 6.62 0 0 1 0 13.238M437.298 399.024a6.62 6.62 0 0 1 0-13.238 6.62 6.62 0 0 1 0 13.238M463.357 399.024c-3.655 0-6.617-2.964-6.617-6.619a6.618 6.618 0 1 1 13.236 0 6.62 6.62 0 0 1-6.619 6.619" paint-order="stroke fill markers"/></g></g></g><style></style><style></style><style></style><style></style><style></style><style></style><style></style><style></style><style></style><style></style><style></style><style></style><style></style><style></style><style></style><style></style><style></style><style></style><style></style><style></style><style></style><style></style><style></style><style></style><style></style><style></style><style></style></svg>